<svg id="Logo" xmlns="http://www.w3.org/2000/svg" viewBox="0 0 170.724 50.48">
  <defs>
    <style>
      .cls-1 {
        fill: #fff;
      }

      .cls-2 {
        fill: none;
        stroke: #fff;
        stroke-linejoin: round;
        stroke-width: 0.961px;
      }
    </style>
  </defs>
  <g id="Group_14" data-name="Group 14" transform="translate(0 1.053)">
    <path id="Path_203" data-name="Path 203" class="cls-1" d="M11.842,2a7.009,7.009,0,0,1,5.2,1.776,7.009,7.009,0,0,1,1.776,5.2v7.3a7.009,7.009,0,0,1-1.776,5.2,7.009,7.009,0,0,1-5.2,1.776H0V2Zm1.513,6.974a2.442,2.442,0,0,0-2.763-2.763H5.461V18.974h5.132a2.442,2.442,0,0,0,2.763-2.763Z" transform="translate(0 -1.737)"/>
    <path id="Path_204" data-name="Path 204" class="cls-1" d="M33.2,2H45.963c2.105,0,3.684.461,4.605,1.447.987.987,1.447,2.5,1.447,4.605v2.763a7.483,7.483,0,0,1-.855,3.947,3.921,3.921,0,0,1-2.632,1.842l3.816,6.645H46.424l-3.487-6.382H38.661V23.25H33.2ZM46.555,8.053a1.637,1.637,0,0,0-1.842-1.842H38.661v6.382h6.053a1.637,1.637,0,0,0,1.842-1.842Z" transform="translate(-11.358 -1.737)"/>
    <path id="Path_205" data-name="Path 205" class="cls-1" d="M85.237,17.324c0,2.105-.461,3.684-1.447,4.605-.987.987-2.5,1.447-4.605,1.447H71.553c-2.105,0-3.684-.461-4.605-1.447-.987-.987-1.447-2.5-1.447-4.605V7.653c0-2.105.461-3.684,1.447-4.605.987-.987,2.5-1.447,4.605-1.447h7.566c2.105,0,3.684.461,4.605,1.447.987.987,1.447,2.5,1.447,4.605v9.671ZM79.776,7.653a1.637,1.637,0,0,0-1.842-1.842H72.8a1.637,1.637,0,0,0-1.842,1.842v9.737A1.637,1.637,0,0,0,72.8,19.232h5.132a1.637,1.637,0,0,0,1.842-1.842Z" transform="translate(-22.408 -1.6)"/>
    <path id="Path_206" data-name="Path 206" class="cls-1" d="M109.621,23.25H98.7V18.974h2.763V6.211H98.7V2h10.921V6.276h-2.763V19.039h2.763V23.25Z" transform="translate(-33.766 -1.737)"/>
    <path id="Path_207" data-name="Path 207" class="cls-1" d="M131.342,2a7.009,7.009,0,0,1,5.2,1.776,7.009,7.009,0,0,1,1.776,5.2v7.3a7.009,7.009,0,0,1-1.776,5.2,7.009,7.009,0,0,1-5.2,1.776H119.5V2Zm1.513,6.974a2.442,2.442,0,0,0-2.763-2.763h-5.132V18.974h5.132a2.442,2.442,0,0,0,2.763-2.763Z" transform="translate(-40.882 -1.737)"/>
    <path id="Path_208" data-name="Path 208" class="cls-1" d="M168.774,22.921c-4.539.395-8.224.592-11.25.592a5.931,5.931,0,0,1-4.342-1.382,5.931,5.931,0,0,1-1.382-4.342V8.053c0-2.105.461-3.684,1.447-4.605.987-.987,2.5-1.447,4.605-1.447h10.921V6.276h-9.737a1.637,1.637,0,0,0-1.842,1.842v9.671a1.547,1.547,0,0,0,.395,1.118,1.389,1.389,0,0,0,1.053.395h1.382a12.676,12.676,0,0,0,1.579-.066c.526,0,1.118-.066,1.645-.066s1.25-.066,2.171-.132c.855-.066,1.974-.132,3.289-.2v4.079Z" transform="translate(-51.932 -1.737)"/>
    <path id="Path_209" data-name="Path 209" class="cls-1" d="M200.071,17.324c0,2.105-.461,3.684-1.447,4.605-.987.987-2.5,1.447-4.605,1.447h-7.566c-2.105,0-3.684-.461-4.605-1.447-.987-.987-1.447-2.5-1.447-4.605V7.653c0-2.105.461-3.684,1.447-4.605.987-.987,2.5-1.447,4.605-1.447h7.566c2.105,0,3.684.461,4.605,1.447.987.987,1.447,2.5,1.447,4.605Zm-5.461-9.671a1.637,1.637,0,0,0-1.842-1.842h-5.132a1.637,1.637,0,0,0-1.842,1.842v9.737a1.637,1.637,0,0,0,1.842,1.842h5.132a1.637,1.637,0,0,0,1.842-1.842Z" transform="translate(-61.716 -1.6)"/>
    <path id="Path_210" data-name="Path 210" class="cls-1" d="M233.487,23.25H227.7l-7.3-12.763V23.25H215V2h5.789l7.3,12.763V2h5.461V23.25Z" transform="translate(-73.553 -1.737)"/>
    <path id="Path_211" data-name="Path 211" class="cls-2" d="M97.8,43.3h12.171a5.931,5.931,0,0,1,4.342,1.382,5.629,5.629,0,0,1,1.382,4.145,5.225,5.225,0,0,1-.789,2.961,3.8,3.8,0,0,1-1.974,1.579,4.7,4.7,0,0,1,3.355,3.289,7.512,7.512,0,0,1,.329,2.171,5.931,5.931,0,0,1-1.382,4.342,5.931,5.931,0,0,1-4.342,1.382H97.8Zm12.434,6.053a1.637,1.637,0,0,0-1.842-1.842h-5.132v4.276h5.132a1.637,1.637,0,0,0,1.842-1.842Zm.921,8.553a1.637,1.637,0,0,0-1.842-1.842h-6.053v4.276h6.053a1.637,1.637,0,0,0,1.842-1.842Z" transform="translate(-33.458 -15.866)"/>
    <path id="Path_212" data-name="Path 212" class="cls-2" d="M150.871,58.624c0,2.105-.461,3.684-1.447,4.605-.987.987-2.5,1.447-4.605,1.447h-7.566c-2.105,0-3.684-.461-4.605-1.447-.987-.987-1.447-2.5-1.447-4.605V48.953c0-2.105.461-3.684,1.447-4.605.987-.987,2.5-1.447,4.605-1.447h7.566c2.105,0,3.684.461,4.605,1.447.987.987,1.447,2.5,1.447,4.605Zm-5.461-9.671a1.637,1.637,0,0,0-1.842-1.842h-5.132a1.637,1.637,0,0,0-1.842,1.842v9.737a1.637,1.637,0,0,0,1.842,1.842h5.132a1.637,1.637,0,0,0,1.842-1.842Z" transform="translate(-44.884 -15.729)"/>
    <path id="Path_213" data-name="Path 213" class="cls-2" d="M166.063,60.142c5.526.329,9.276.461,11.25.461a1.374,1.374,0,0,0,1.513-1.513V56.326h-6.974c-2.105,0-3.684-.461-4.605-1.447-.987-.987-1.447-2.5-1.447-4.605v-.921c0-2.105.461-3.684,1.447-4.605.987-.987,2.5-1.447,4.605-1.447h10.658v4.276H173.1a1.637,1.637,0,0,0-1.842,1.842v.592a1.637,1.637,0,0,0,1.842,1.842h5.461a5.931,5.931,0,0,1,4.342,1.382,5.931,5.931,0,0,1,1.382,4.342v1.513a5.931,5.931,0,0,1-1.382,4.342,5.931,5.931,0,0,1-4.342,1.382c-1.053,0-2.105,0-3.289-.066l-2.763-.132c-2.039-.132-4.211-.263-6.382-.395V60.142Z" transform="translate(-56.721 -15.866)"/>
    <path id="Path_214" data-name="Path 214" class="cls-1" d="M201.7,64.55V48.037l-3.487,1.184L196.7,45.734l5.592-2.434h4.868V64.55Z" transform="translate(-67.292 -15.866)"/>
    <path id="Path_215" data-name="Path 215" class="cls-1" d="M219.247,59.971c4.145.329,7.105.461,8.816.461a1.374,1.374,0,0,0,1.513-1.513V56.155a26.687,26.687,0,0,1-5.132.592h-2.105a4.266,4.266,0,0,1-3.289-1.25,4.363,4.363,0,0,1-1.25-3.289V48.261a5.364,5.364,0,0,1,1.382-4.079,5.931,5.931,0,0,1,4.342-1.382h5.789a5.931,5.931,0,0,1,4.342,1.382,5.566,5.566,0,0,1,1.382,4.079V58.853a5.931,5.931,0,0,1-1.382,4.342,5.931,5.931,0,0,1-4.342,1.382c-2.763,0-6.118-.2-10-.592V59.971Zm6.711-7.434a23.116,23.116,0,0,0,3.618-.329V48.853a1.637,1.637,0,0,0-1.842-1.842h-2.763a1.637,1.637,0,0,0-1.842,1.842v2.632a1.214,1.214,0,0,0,.329.789,1.09,1.09,0,0,0,.789.329h1.711Z" transform="translate(-74.511 -15.695)"/>
  </g>
  <rect id="Rectangle_829" data-name="Rectangle 829" class="cls-1" width="5.197" height="49.342" transform="translate(165.526)"/>
</svg>
